<?xml version="1.0" encoding="UTF-8"?>
<svg width="512px" height="512px" viewBox="0 0 512 512" version="1.1" xmlns="http://www.w3.org/2000/svg">
    <title>Heart</title>
    <g stroke="none" stroke-width="1" fill="none" fill-rule="evenodd">
        <path d="M256,448.039 C253.095,448.039 250.189,447.358 247.624,445.995 C244.038,444.061 149.476,390.521 86.013,322.356 C49.114,282.264 26.061,240.17 17.021,196.746 C12.774,174.487 12.098,148.681 15.018,122.197 C20.479,74.464 48.777,35.721 89.939,15.024 C113.799,3.37 139.945,-1.285 169.257,0.295 C210.76,2.537 248.337,23.573 256,66.346 C263.663,23.573 301.24,2.537 342.743,0.295 C372.051,-1.284 398.201,3.37 422.061,15.024 C463.223,35.722 491.521,74.465 496.982,122.197 C499.902,148.681 499.226,174.487 494.979,196.746 C485.939,240.17 462.886,282.263 425.988,322.356 C362.524,390.521 267.962,444.061 264.376,445.995 C261.811,447.358 258.905,448.039 256,448.039 Z" fill="#E53E3E"></path>
    </g>
</svg>